<svg xmlns="http://www.w3.org/2000/svg" width="100%" height="100%" viewBox="0 0 28 28" fill="none" class="" data-mds="LogoSymbolColorPlayer"><rect x="4" y="4" width="20" height="20" rx="3" fill="none" class="fill-white" data-mds="LogoSymbolColorPlayer"></rect><path d="M18.3276 9.54314L17.3792 8.59489C17.1491 8.36503 16.8734 8.25 16.5517 8.25H12.0689H10V19.75H12.0689V15.2501H16.5346C16.8678 15.2501 17.1493 15.1353 17.3792 14.9052L18.3276 13.9568C18.569 13.7154 18.6898 13.4285 18.6898 13.0948V10.4052C18.6898 10.0718 18.5692 9.78452 18.3276 9.54314ZM16.6207 12.4568C16.6207 12.5492 16.5861 12.6293 16.5172 12.6982L16.0344 13.181C15.9655 13.2501 15.8848 13.2845 15.793 13.2845H12.0689V10.2327H15.793C15.8848 10.2327 15.9655 10.2671 16.0344 10.3362L16.5172 10.8188C16.5861 10.8879 16.6207 10.9684 16.6207 11.0602V12.4568Z" fill="#37B0F4" class="" data-mds="LogoSymbolColorPlayer" vector-effect="non-scaling-stroke"></path></svg>